<?xml version="1.0" encoding="iso-8859-1"?>
<!-- Generator: Adobe Illustrator 16.0.0, SVG Export Plug-In . SVG Version: 6.00 Build 0)  -->
<!DOCTYPE svg PUBLIC "-//W3C//DTD SVG 1.1//EN" "http://www.w3.org/Graphics/SVG/1.1/DTD/svg11.dtd">
<svg version="1.1" id="Capa_1" xmlns="http://www.w3.org/2000/svg" xmlns:xlink="http://www.w3.org/1999/xlink" x="0px" y="0px"
	 width="113.405px" height="113.405px" viewBox="0 0 113.405 113.405" fill="#ffc107"
	 xml:space="preserve">
<g>
	<path d="M10.805,62.354V37.26c0-1.089,0.659-2.078,1.669-2.5c1.015-0.401,2.165-0.18,2.942,0.577l13.882,13.846l15.412-15.412
		c1.049-1.052,2.766-1.052,3.818,0c1.049,1.055,1.049,2.767,0,3.818L31.211,54.913c-1.052,1.055-2.769,1.047-3.818,0.005
		L16.205,43.763v18.586c0,1.492-1.21,2.7-2.7,2.7S10.805,63.846,10.805,62.354z M113.405,90.762c0,0.174-0.079,0.332-0.11,0.506
		c0.021,0.169,0.11,0.322,0.11,0.496c0,11.059-35.644,14.006-56.7,14.006C35.646,105.77,0,102.822,0,91.764
		c0-0.174,0.087-0.327,0.103-0.496C0.071,91.1,0,90.936,0,90.762V11.233c0-1.092,0.659-2.081,1.669-2.495
		c1.01-0.412,2.17-0.185,2.942,0.572L29.283,33.93L54.799,8.425c1.047-1.052,2.766-1.052,3.812,0L84.09,33.896l24.712-24.584
		c0.775-0.767,1.919-1,2.942-0.572c1.007,0.414,1.661,1.403,1.661,2.495V90.762L113.405,90.762z M5.405,17.74v56.621
		c2.505-1.308,5.854-2.479,10.162-3.502c1.442-0.363,2.905,0.555,3.256,2.004c0.335,1.456-0.562,2.906-2.004,3.249
		C6.507,78.564,5.442,80.948,5.416,81.006v4.197c10.747-5.727,35.239-7.445,51.305-7.445c16.053,0,40.543,1.719,51.295,7.445v-4.202
		c-0.021-0.069-1.128-2.516-11.896-4.999c-1.461-0.333-2.368-1.788-2.025-3.244c0.343-1.46,1.782-2.367,3.254-2.024
		c4.926,1.139,8.321,2.362,10.684,3.564V17.73L86.01,39.631c-1.044,1.044-2.753,1.049-3.808-0.006L56.731,14.154L31.229,39.657
		c-1.055,1.055-2.771,1.049-3.818,0.005L5.405,17.74z M108.005,91.695c-0.896-2.911-19.301-8.554-51.3-8.554
		S6.291,88.784,5.395,91.801c0.902,2.916,19.322,8.554,51.311,8.554C88.694,100.359,107.108,94.723,108.005,91.695z M64.473,72.463
		c5.532,0.169,10.906,0.527,15.969,1.039c0.095,0.011,0.189,0.016,0.284,0.016c1.371,0,2.542-1.033,2.679-2.42
		c0.148-1.482-0.917-2.812-2.404-2.964c-5.189-0.538-10.694-0.896-16.358-1.071c-1.761-0.01-2.742,1.129-2.784,2.611
		C61.794,71.176,62.97,72.416,64.473,72.463z M31.896,68.197c-1.484,0.158-2.563,1.486-2.397,2.979
		c0.145,1.382,1.318,2.405,2.679,2.405c0.103,0,0.195-0.005,0.292-0.016c5.026-0.538,10.394-0.896,15.968-1.076
		c1.489-0.048,2.66-1.292,2.613-2.784c-0.055-1.487-1.39-2.679-2.787-2.615C42.551,67.273,37.049,67.648,31.896,68.197z"/>
</g>
<g>
</g>
<g>
</g>
<g>
</g>
<g>
</g>
<g>
</g>
<g>
</g>
<g>
</g>
<g>
</g>
<g>
</g>
<g>
</g>
<g>
</g>
<g>
</g>
<g>
</g>
<g>
</g>
<g>
</g>
</svg>
